<svg width="32" height="32" viewBox="0 0 32 32" fill="none" xmlns="http://www.w3.org/2000/svg">
<g clip-path="url(#clip0)">
<path d="M7.30845 2.65628C7.19039 2.50441 7.04136 2.37939 6.87126 2.28953C6.70116 2.19968 6.51389 2.14705 6.32189 2.13513C6.12989 2.12321 5.93755 2.15228 5.75765 2.22041C5.57774 2.28854 5.4144 2.39417 5.27845 2.53028L3.21045 4.60028C2.24445 5.56828 1.88845 6.93829 2.31045 8.14029C4.06193 13.1155 6.91104 17.6325 10.6465 21.3563C14.3703 25.0916 18.8873 27.9407 23.8625 29.6923C25.0645 30.1143 26.4345 29.7583 27.4025 28.7923L29.4705 26.7243C29.6066 26.5883 29.7122 26.425 29.7803 26.2451C29.8485 26.0652 29.8775 25.8728 29.8656 25.6808C29.8537 25.4888 29.8011 25.3016 29.7112 25.1315C29.6214 24.9614 29.4963 24.8124 29.3445 24.6943L24.7305 21.1063C24.5682 20.9804 24.3795 20.8931 24.1785 20.8508C23.9776 20.8085 23.7697 20.8125 23.5705 20.8623L19.1905 21.9563C18.6058 22.1024 17.9933 22.0947 17.4125 21.9338C16.8318 21.7729 16.3026 21.4644 15.8765 21.0383L10.9645 16.1243C10.538 15.6984 10.2291 15.1692 10.0679 14.5885C9.90665 14.0077 9.89858 13.3951 10.0445 12.8103L11.1405 8.43029C11.1903 8.23108 11.1942 8.02316 11.1519 7.82221C11.1097 7.62127 11.0223 7.43254 10.8965 7.27028L7.30845 2.65628ZM3.76845 1.02228C4.11844 0.672184 4.53891 0.400546 5.00193 0.225407C5.46495 0.050269 5.95994 -0.0243617 6.45402 0.00647089C6.94809 0.0373035 7.42996 0.172894 7.86762 0.404238C8.30527 0.635583 8.68871 0.957388 8.99245 1.34828L12.5805 5.96028C13.2385 6.80628 13.4705 7.90829 13.2105 8.94829L12.1165 13.3283C12.0599 13.5551 12.0629 13.7928 12.1253 14.0181C12.1877 14.2434 12.3073 14.4488 12.4725 14.6143L17.3865 19.5283C17.5521 19.6938 17.7578 19.8136 17.9836 19.876C18.2093 19.9383 18.4473 19.9412 18.6745 19.8843L23.0525 18.7903C23.5657 18.662 24.1014 18.652 24.619 18.7611C25.1367 18.8703 25.6227 19.0957 26.0405 19.4203L30.6525 23.0083C32.3105 24.2983 32.4625 26.7483 30.9785 28.2303L28.9105 30.2983C27.4305 31.7783 25.2185 32.4283 23.1565 31.7023C17.8788 29.8453 13.087 26.824 9.13645 22.8623C5.17503 18.9123 2.15367 14.1212 0.296454 8.84429C-0.427546 6.78429 0.222454 4.57028 1.70245 3.09028L3.77045 1.02228H3.76845Z" fill="black"/>
</g>
<defs>
<clipPath id="clip0">
<rect width="32" height="32" fill="white"/>
</clipPath>
</defs>
</svg>
