<svg width="322" height="104" viewBox="0 0 322 104" fill="none" xmlns="http://www.w3.org/2000/svg">
<g filter="url(#filter0_d)">
<g filter="url(#filter1_d)">
<rect x="8" y="4" width="306" height="88" rx="35" fill="white" fill-opacity="0.9"/>
</g>
<path d="M109.611 46.8849V48.3729H98.1628V31.3329H109.395V32.8209H99.8428V38.9649H108.171V40.3809H99.8428V46.8849H109.611ZM122.847 48.3729H121.215V41.3889C121.215 39.9169 120.991 38.8449 120.543 38.1729C120.111 37.4849 119.439 37.1409 118.527 37.1409C117.887 37.1409 117.255 37.3009 116.631 37.6209C116.007 37.9249 115.455 38.3489 114.975 38.8929C114.511 39.4209 114.175 40.0289 113.967 40.7169V48.3729H112.335V35.8689H113.823V38.7009C114.319 37.7889 115.047 37.0529 116.007 36.4929C116.967 35.9329 118.007 35.6529 119.127 35.6529C120.055 35.6529 120.791 35.8769 121.335 36.3249C121.879 36.7569 122.263 37.3809 122.487 38.1969C122.727 38.9969 122.847 39.9489 122.847 41.0529V48.3729ZM132.21 47.7729C132.018 47.8529 131.666 47.9969 131.154 48.2049C130.642 48.4129 130.05 48.5169 129.378 48.5169C128.674 48.5169 128.058 48.3169 127.53 47.9169C127.002 47.5169 126.738 46.9169 126.738 46.1169V37.1649H125.01V35.8689H126.738V31.6449H128.37V35.8689H131.25V37.1649H128.37V45.6609C128.402 46.1249 128.562 46.4689 128.85 46.6929C129.154 46.9009 129.498 47.0049 129.882 47.0049C130.33 47.0049 130.73 46.9329 131.082 46.7889C131.45 46.6289 131.682 46.5169 131.778 46.4529L132.21 47.7729ZM139.438 48.6129C138.238 48.6129 137.166 48.3169 136.222 47.7249C135.278 47.1329 134.534 46.3409 133.99 45.3489C133.446 44.3569 133.174 43.2689 133.174 42.0849C133.174 40.9169 133.438 39.8449 133.966 38.8689C134.51 37.8929 135.254 37.1169 136.198 36.5409C137.142 35.9489 138.214 35.6529 139.414 35.6529C140.646 35.6529 141.726 35.9489 142.654 36.5409C143.582 37.1329 144.302 37.9169 144.814 38.8929C145.342 39.8529 145.606 40.9089 145.606 42.0609C145.606 42.3169 145.598 42.5329 145.582 42.7089H134.878C134.958 43.6049 135.214 44.4049 135.646 45.1089C136.078 45.7969 136.63 46.3489 137.302 46.7649C137.974 47.1649 138.71 47.3649 139.51 47.3649C140.326 47.3649 141.094 47.1569 141.814 46.7409C142.534 46.3249 143.046 45.7809 143.35 45.1089L144.766 45.4929C144.51 46.1009 144.11 46.6449 143.566 47.1249C143.038 47.5889 142.422 47.9569 141.718 48.2289C141.014 48.4849 140.254 48.6129 139.438 48.6129ZM134.83 41.5329H144.07C144.006 40.6369 143.758 39.8449 143.326 39.1569C142.894 38.4529 142.342 37.9089 141.67 37.5249C140.998 37.1249 140.254 36.9249 139.438 36.9249C138.622 36.9249 137.878 37.1249 137.206 37.5249C136.534 37.9089 135.982 38.4529 135.55 39.1569C135.134 39.8449 134.894 40.6369 134.83 41.5329ZM154.364 37.3089C153.276 37.3409 152.316 37.6449 151.484 38.2209C150.668 38.7969 150.092 39.5889 149.756 40.5969V48.3729H148.124V35.8689H149.66V38.8689C150.092 37.9889 150.66 37.2769 151.364 36.7329C152.084 36.1889 152.844 35.8849 153.644 35.8209C153.804 35.8049 153.94 35.7969 154.052 35.7969C154.164 35.7969 154.268 35.8049 154.364 35.8209V37.3089ZM169.364 48.4929C168.02 48.4929 166.884 48.2529 165.956 47.7729C165.044 47.2929 164.308 46.6449 163.748 45.8289C163.188 45.0129 162.788 44.1009 162.548 43.0929C162.308 42.0689 162.188 41.0129 162.188 39.9249V31.3329H163.844V39.9249C163.844 40.8209 163.932 41.6929 164.108 42.5409C164.3 43.3729 164.604 44.1249 165.02 44.7969C165.436 45.4689 165.996 46.0049 166.7 46.4049C167.404 46.7889 168.284 46.9809 169.34 46.9809C170.428 46.9809 171.324 46.7809 172.028 46.3809C172.748 45.9809 173.316 45.4449 173.732 44.7729C174.148 44.0849 174.436 43.3249 174.596 42.4929C174.772 41.6449 174.86 40.7889 174.86 39.9249V31.3329H176.54V39.9249C176.54 41.0609 176.412 42.1489 176.156 43.1889C175.9 44.2129 175.484 45.1249 174.908 45.9249C174.348 46.7249 173.612 47.3569 172.7 47.8209C171.788 48.2689 170.676 48.4929 169.364 48.4929ZM184.009 48.6129C182.985 48.6129 182.033 48.4449 181.153 48.1089C180.289 47.7569 179.529 47.2449 178.873 46.5729L179.545 45.4209C180.249 46.0769 180.953 46.5569 181.657 46.8609C182.377 47.1489 183.137 47.2929 183.937 47.2929C184.897 47.2929 185.681 47.1009 186.289 46.7169C186.913 46.3169 187.225 45.7489 187.225 45.0129C187.225 44.5169 187.073 44.1409 186.769 43.8849C186.481 43.6129 186.057 43.3969 185.497 43.2369C184.953 43.0769 184.297 42.8929 183.529 42.6849C182.665 42.4449 181.937 42.1969 181.345 41.9409C180.769 41.6689 180.329 41.3329 180.025 40.9329C179.737 40.5169 179.593 39.9809 179.593 39.3249C179.593 38.5249 179.793 37.8529 180.193 37.3089C180.609 36.7649 181.169 36.3569 181.873 36.0849C182.593 35.7969 183.393 35.6529 184.273 35.6529C185.233 35.6529 186.081 35.8049 186.817 36.1089C187.553 36.4129 188.153 36.8369 188.617 37.3809L187.825 38.4849C187.393 37.9729 186.857 37.5969 186.217 37.3569C185.593 37.1009 184.913 36.9729 184.177 36.9729C183.665 36.9729 183.177 37.0449 182.713 37.1889C182.249 37.3169 181.865 37.5409 181.561 37.8609C181.273 38.1649 181.129 38.5889 181.129 39.1329C181.129 39.8049 181.377 40.2689 181.873 40.5249C182.369 40.7809 183.121 41.0529 184.129 41.3409C185.073 41.5969 185.897 41.8529 186.601 42.1089C187.305 42.3649 187.849 42.7089 188.233 43.1409C188.617 43.5569 188.809 44.1409 188.809 44.8929C188.809 46.0609 188.369 46.9729 187.489 47.6289C186.609 48.2849 185.449 48.6129 184.009 48.6129ZM196.906 48.6129C195.706 48.6129 194.634 48.3169 193.69 47.7249C192.746 47.1329 192.002 46.3409 191.458 45.3489C190.914 44.3569 190.642 43.2689 190.642 42.0849C190.642 40.9169 190.906 39.8449 191.434 38.8689C191.978 37.8929 192.722 37.1169 193.666 36.5409C194.61 35.9489 195.682 35.6529 196.882 35.6529C198.114 35.6529 199.194 35.9489 200.122 36.5409C201.05 37.1329 201.77 37.9169 202.282 38.8929C202.81 39.8529 203.074 40.9089 203.074 42.0609C203.074 42.3169 203.066 42.5329 203.05 42.7089H192.346C192.426 43.6049 192.682 44.4049 193.114 45.1089C193.546 45.7969 194.098 46.3489 194.77 46.7649C195.442 47.1649 196.178 47.3649 196.978 47.3649C197.794 47.3649 198.562 47.1569 199.282 46.7409C200.002 46.3249 200.514 45.7809 200.818 45.1089L202.234 45.4929C201.978 46.1009 201.578 46.6449 201.034 47.1249C200.506 47.5889 199.89 47.9569 199.186 48.2289C198.482 48.4849 197.722 48.6129 196.906 48.6129ZM192.298 41.5329H201.538C201.474 40.6369 201.226 39.8449 200.794 39.1569C200.362 38.4529 199.81 37.9089 199.138 37.5249C198.466 37.1249 197.722 36.9249 196.906 36.9249C196.09 36.9249 195.346 37.1249 194.674 37.5249C194.002 37.9089 193.45 38.4529 193.018 39.1569C192.602 39.8449 192.362 40.6369 192.298 41.5329ZM211.832 37.3089C210.744 37.3409 209.784 37.6449 208.952 38.2209C208.136 38.7969 207.56 39.5889 207.224 40.5969V48.3729H205.592V35.8689H207.128V38.8689C207.56 37.9889 208.128 37.2769 208.832 36.7329C209.552 36.1889 210.312 35.8849 211.112 35.8209C211.272 35.8049 211.408 35.7969 211.52 35.7969C211.632 35.7969 211.736 35.8049 211.832 35.8209V37.3089ZM224.518 48.3729H222.886V41.3889C222.886 39.9169 222.662 38.8449 222.214 38.1729C221.782 37.4849 221.11 37.1409 220.198 37.1409C219.558 37.1409 218.926 37.3009 218.302 37.6209C217.678 37.9249 217.126 38.3489 216.646 38.8929C216.182 39.4209 215.846 40.0289 215.638 40.7169V48.3729H214.006V35.8689H215.494V38.7009C215.99 37.7889 216.718 37.0529 217.678 36.4929C218.638 35.9329 219.678 35.6529 220.798 35.6529C221.726 35.6529 222.462 35.8769 223.006 36.3249C223.55 36.7569 223.934 37.3809 224.158 38.1969C224.398 38.9969 224.518 39.9489 224.518 41.0529V48.3729ZM226.991 44.7729C226.991 44.0049 227.215 43.3409 227.663 42.7809C228.111 42.2049 228.727 41.7569 229.511 41.4369C230.311 41.1169 231.231 40.9569 232.271 40.9569C232.879 40.9569 233.511 41.0129 234.167 41.1249C234.823 41.2209 235.407 41.3569 235.919 41.5329V40.4769C235.919 39.4209 235.607 38.5809 234.983 37.9569C234.359 37.3329 233.495 37.0209 232.391 37.0209C231.735 37.0209 231.079 37.1489 230.423 37.4049C229.767 37.6449 229.087 38.0049 228.383 38.4849L227.759 37.3329C228.575 36.7729 229.375 36.3569 230.159 36.0849C230.943 35.7969 231.743 35.6529 232.559 35.6529C234.095 35.6529 235.311 36.0929 236.207 36.9729C237.103 37.8529 237.551 39.0689 237.551 40.6209V46.4049C237.551 46.8369 237.751 47.0609 238.151 47.0769V48.3729C237.799 48.4209 237.551 48.4369 237.407 48.4209C237.007 48.4049 236.703 48.2769 236.495 48.0369C236.287 47.7969 236.175 47.5409 236.159 47.2689L236.135 46.3569C235.575 47.0769 234.847 47.6369 233.951 48.0369C233.055 48.4209 232.143 48.6129 231.215 48.6129C230.399 48.6129 229.671 48.4449 229.031 48.1089C228.391 47.7569 227.887 47.2929 227.519 46.7169C227.167 46.1249 226.991 45.4769 226.991 44.7729ZM235.367 45.7329C235.735 45.3009 235.919 44.9009 235.919 44.5329V42.7089C234.815 42.2769 233.663 42.0609 232.463 42.0609C231.295 42.0609 230.351 42.2929 229.631 42.7569C228.911 43.2209 228.551 43.8529 228.551 44.6529C228.551 45.3409 228.815 45.9649 229.343 46.5249C229.887 47.0849 230.639 47.3649 231.599 47.3649C232.383 47.3649 233.111 47.2129 233.783 46.9089C234.471 46.6049 234.999 46.2129 235.367 45.7329ZM259.677 48.3729H258.045V41.3889C258.045 39.9489 257.813 38.8849 257.349 38.1969C256.885 37.4929 256.197 37.1409 255.285 37.1409C254.325 37.1409 253.477 37.4769 252.741 38.1489C252.005 38.8209 251.485 39.6849 251.181 40.7409V48.3729H249.549V41.3889C249.549 39.9169 249.317 38.8449 248.853 38.1729C248.405 37.4849 247.725 37.1409 246.813 37.1409C245.869 37.1409 245.021 37.4689 244.269 38.1249C243.533 38.7809 243.013 39.6449 242.709 40.7169V48.3729H241.077V35.8689H242.565V38.7009C243.077 37.7409 243.749 36.9969 244.581 36.4689C245.413 35.9249 246.333 35.6529 247.341 35.6529C248.381 35.6529 249.221 35.9569 249.861 36.5649C250.501 37.1569 250.893 37.9249 251.037 38.8689C252.189 36.7249 253.797 35.6529 255.861 35.6529C257.269 35.6529 258.253 36.1489 258.813 37.1409C259.389 38.1169 259.677 39.4209 259.677 41.0529V48.3729ZM268.531 48.6129C267.331 48.6129 266.259 48.3169 265.315 47.7249C264.371 47.1329 263.627 46.3409 263.083 45.3489C262.539 44.3569 262.267 43.2689 262.267 42.0849C262.267 40.9169 262.531 39.8449 263.059 38.8689C263.603 37.8929 264.347 37.1169 265.291 36.5409C266.235 35.9489 267.307 35.6529 268.507 35.6529C269.739 35.6529 270.819 35.9489 271.747 36.5409C272.675 37.1329 273.395 37.9169 273.907 38.8929C274.435 39.8529 274.699 40.9089 274.699 42.0609C274.699 42.3169 274.691 42.5329 274.675 42.7089H263.971C264.051 43.6049 264.307 44.4049 264.739 45.1089C265.171 45.7969 265.723 46.3489 266.395 46.7649C267.067 47.1649 267.803 47.3649 268.603 47.3649C269.419 47.3649 270.187 47.1569 270.907 46.7409C271.627 46.3249 272.139 45.7809 272.443 45.1089L273.859 45.4929C273.603 46.1009 273.203 46.6449 272.659 47.1249C272.131 47.5889 271.515 47.9569 270.811 48.2289C270.107 48.4849 269.347 48.6129 268.531 48.6129ZM263.923 41.5329H273.163C273.099 40.6369 272.851 39.8449 272.419 39.1569C271.987 38.4529 271.435 37.9089 270.763 37.5249C270.091 37.1249 269.347 36.9249 268.531 36.9249C267.715 36.9249 266.971 37.1249 266.299 37.5249C265.627 37.9089 265.075 38.4529 264.643 39.1569C264.227 39.8449 263.987 40.6369 263.923 41.5329Z" fill="black" fill-opacity="0.6"/>
</g>
<defs>
<filter id="filter0_d" x="4" y="4" width="314" height="96" filterUnits="userSpaceOnUse" color-interpolation-filters="sRGB">
<feFlood flood-opacity="0" result="BackgroundImageFix"/>
<feColorMatrix in="SourceAlpha" type="matrix" values="0 0 0 0 0 0 0 0 0 0 0 0 0 0 0 0 0 0 127 0"/>
<feOffset dy="4"/>
<feGaussianBlur stdDeviation="2"/>
<feColorMatrix type="matrix" values="0 0 0 0 0 0 0 0 0 0 0 0 0 0 0 0 0 0 0.25 0"/>
<feBlend mode="normal" in2="BackgroundImageFix" result="effect1_dropShadow"/>
<feBlend mode="normal" in="SourceGraphic" in2="effect1_dropShadow" result="shape"/>
</filter>
<filter id="filter1_d" x="0" y="0" width="322" height="104" filterUnits="userSpaceOnUse" color-interpolation-filters="sRGB">
<feFlood flood-opacity="0" result="BackgroundImageFix"/>
<feColorMatrix in="SourceAlpha" type="matrix" values="0 0 0 0 0 0 0 0 0 0 0 0 0 0 0 0 0 0 127 0"/>
<feOffset dy="4"/>
<feGaussianBlur stdDeviation="4"/>
<feColorMatrix type="matrix" values="0 0 0 0 0 0 0 0 0 0 0 0 0 0 0 0 0 0 0.25 0"/>
<feBlend mode="normal" in2="BackgroundImageFix" result="effect1_dropShadow"/>
<feBlend mode="normal" in="SourceGraphic" in2="effect1_dropShadow" result="shape"/>
</filter>
</defs>
</svg>
